# xmcd CD database file
# Copyright (C) 1993-1998 Ti Kan
#
# Track frame offsets:
#	150
#	15915
#	31305
#	58240
#	77153
#	91808
#	108238
#	131003
#	151780
#	164353
#	193325
#	214015
#
# Disc length: 3020 seconds
#
# Revision: 1
# Processed by: cddbd v1.4b41PL1 Copyright (c) Steve Scherf et al.
# Submitted via: xmcd 2.3 PL0
#
DISCID=940bca0c
DTITLE=San Pedro Slim - Another Night On The Town
DYEAR=1900
DGENRE=
TTITLE0=Fell In Love With A Playgirl
TTITLE1=I Quit
TTITLE2=Having A Hard Time
TTITLE3=Your Change Of Plans
TTITLE4=Drinkin' Money
TTITLE5=The Things I'll Do (For You)
TTITLE6=Guess I'm The Fool This Time
TTITLE7=Telegram Blues
TTITLE8=Scotch and Water In A Bucket
TTITLE9=Rejection Blues
TTITLE10=Should I Find (Someone New)
TTITLE11=Stay Home
EXTD=
EXTT0=
EXTT1=
EXTT2=
EXTT3=
EXTT4=
EXTT5=
EXTT6=
EXTT7=
EXTT8=
EXTT9=
EXTT10=
EXTT11=
PLAYORDER=
